<svg id="visual" viewBox="0 0 960 135" width="960" height="135" xmlns="http://www.w3.org/2000/svg" xmlns:xlink="http://www.w3.org/1999/xlink" version="1.1"><path d="M0 109L17.8 111C35.7 113 71.3 117 106.8 120.2C142.3 123.3 177.7 125.7 213.2 127.8C248.7 130 284.3 132 320 129.7C355.7 127.3 391.3 120.7 426.8 117.8C462.3 115 497.7 116 533.2 120C568.7 124 604.3 131 640 131.7C675.7 132.3 711.3 126.7 746.8 121.3C782.3 116 817.7 111 853.2 108.5C888.7 106 924.3 106 942.2 106L960 106L960 0L942.2 0C924.3 0 888.7 0 853.2 0C817.7 0 782.3 0 746.8 0C711.3 0 675.7 0 640 0C604.3 0 568.7 0 533.2 0C497.7 0 462.3 0 426.8 0C391.3 0 355.7 0 320 0C284.3 0 248.7 0 213.2 0C177.7 0 142.3 0 106.8 0C71.3 0 35.7 0 17.8 0L0 0Z" fill="#6fb8dc"></path><path d="M0 81L17.8 80.8C35.7 80.7 71.3 80.3 106.8 84C142.3 87.7 177.7 95.3 213.2 100.2C248.7 105 284.3 107 320 103.3C355.7 99.7 391.3 90.3 426.8 89.3C462.3 88.3 497.7 95.7 533.2 95.7C568.7 95.7 604.3 88.3 640 84C675.7 79.7 711.3 78.3 746.8 81.2C782.3 84 817.7 91 853.2 95.7C888.7 100.3 924.3 102.7 942.2 103.8L960 105L960 0L942.2 0C924.3 0 888.7 0 853.2 0C817.7 0 782.3 0 746.8 0C711.3 0 675.7 0 640 0C604.3 0 568.7 0 533.2 0C497.7 0 462.3 0 426.8 0C391.3 0 355.7 0 320 0C284.3 0 248.7 0 213.2 0C177.7 0 142.3 0 106.8 0C71.3 0 35.7 0 17.8 0L0 0Z" fill="#449ed5"></path><path d="M0 78L17.8 74.5C35.7 71 71.3 64 106.8 65.3C142.3 66.7 177.7 76.3 213.2 81C248.7 85.7 284.3 85.3 320 80C355.7 74.7 391.3 64.3 426.8 59.2C462.3 54 497.7 54 533.2 57.8C568.7 61.7 604.3 69.3 640 70.5C675.7 71.7 711.3 66.3 746.8 66.7C782.3 67 817.7 73 853.2 77C888.7 81 924.3 83 942.2 84L960 85L960 0L942.2 0C924.3 0 888.7 0 853.2 0C817.7 0 782.3 0 746.8 0C711.3 0 675.7 0 640 0C604.3 0 568.7 0 533.2 0C497.7 0 462.3 0 426.8 0C391.3 0 355.7 0 320 0C284.3 0 248.7 0 213.2 0C177.7 0 142.3 0 106.8 0C71.3 0 35.7 0 17.8 0L0 0Z" fill="#1c83cd"></path><path d="M0 65L17.8 59.8C35.7 54.7 71.3 44.3 106.8 41C142.3 37.7 177.7 41.3 213.2 42.2C248.7 43 284.3 41 320 40.5C355.7 40 391.3 41 426.8 41.2C462.3 41.3 497.7 40.7 533.2 40.7C568.7 40.7 604.3 41.3 640 42C675.7 42.7 711.3 43.3 746.8 44.8C782.3 46.3 817.7 48.7 853.2 46.7C888.7 44.7 924.3 38.3 942.2 35.2L960 32L960 0L942.2 0C924.3 0 888.7 0 853.2 0C817.7 0 782.3 0 746.8 0C711.3 0 675.7 0 640 0C604.3 0 568.7 0 533.2 0C497.7 0 462.3 0 426.8 0C391.3 0 355.7 0 320 0C284.3 0 248.7 0 213.2 0C177.7 0 142.3 0 106.8 0C71.3 0 35.7 0 17.8 0L0 0Z" fill="#0f66c1"></path><path d="M0 36L17.8 33.5C35.7 31 71.3 26 106.8 26.3C142.3 26.7 177.7 32.3 213.2 31.7C248.7 31 284.3 24 320 19.8C355.7 15.7 391.3 14.3 426.8 14.3C462.3 14.3 497.7 15.7 533.2 15.7C568.7 15.7 604.3 14.3 640 15.3C675.7 16.3 711.3 19.7 746.8 21.3C782.3 23 817.7 23 853.2 24.8C888.7 26.7 924.3 30.3 942.2 32.2L960 34L960 0L942.2 0C924.3 0 888.7 0 853.2 0C817.7 0 782.3 0 746.8 0C711.3 0 675.7 0 640 0C604.3 0 568.7 0 533.2 0C497.7 0 462.3 0 426.8 0C391.3 0 355.7 0 320 0C284.3 0 248.7 0 213.2 0C177.7 0 142.3 0 106.8 0C71.3 0 35.7 0 17.8 0L0 0Z" fill="#2b47ae"></path></svg>